<svg width="1440" height="1024" viewBox="0 0 1440 1024" fill="none" xmlns="http://www.w3.org/2000/svg">
<rect width="1440" height="1024" fill="white"/>
<path d="M721.5 966.5L683 888.5L668.5 954.5L484.5 763.5L471 830.5L401.5 623.5L372.5 711.5L371.5 487L320 559.5L373.5 365.5L317.5 449.5L354 287.5L497.5 162.5L445.5 164.5L612.5 83.5L536.5 77.5L601.5 60.5C601.5 60.5 674.637 91.5833 721.5 111.5" stroke="black" stroke-width="4"/>
<path d="M721 841.318L676.65 788.066L666.349 841.318L535.636 687.211L526.046 741.269L476.673 574.253L456.072 645.255L455.361 464.119L418.776 522.615L456.782 366.087L417 433.862L442.929 303.153L544.871 202.298L507.931 203.912L626.567 138.557L572.577 133.716L618.752 120C618.752 120 687.709 145.43 721 161.5" stroke="black" stroke-width="4"/>
<path d="M542.5 353.5L587 316.5L675.5 359.5L627 343.5L594.5 365.5L590.75 341L587 316.5L576 345L542.5 353.5Z" fill="black"/>
<path d="M540 260L483 396.5L563.5 484.5V543.5L598.5 601.5M598.5 601.5L600 667.5L648.5 718.5H678.5L688.5 766.5L700.5 723.5L721.5 787.5M598.5 601.5L633 626L720.5 601.5V543.5L648.5 482L661.737 450.5M702.5 353.5L661.737 450.5M661.737 450.5L720.5 459M587 316.5C569.622 330.949 542.5 353.5 542.5 353.5L576 345L587 316.5ZM587 316.5C621.561 333.293 675.5 359.5 675.5 359.5L627 343.5L594.5 365.5C593.036 355.932 592.214 350.568 590.75 341C589.286 331.432 588.464 326.068 587 316.5Z" stroke="black" stroke-width="3"/>
<path d="M720.5 601.5L633 626H720.5V601.5Z" fill="black"/>
<path d="M543 353.5L577.191 345L594.287 367.5M633 626L720.5 601.5V626H633Z" stroke="black" stroke-width="3"/>
<path d="M577 345L586.5 316.5L627.5 343L593.5 366.5L577 345Z" fill="black"/>
<path d="M577 345L586.5 316.5L627.5 343M577 345L602.25 344M577 345L593.5 366.5M627.5 343L602.25 344M627.5 343L593.5 366.5M602.25 344L593.5 366.5" stroke="black" stroke-width="3"/>
<path d="M540 261L620.95 195H720" stroke="black" stroke-width="3"/>
<path d="M548 306.5L606 273.5L662.5 306.5" stroke="black" stroke-width="3"/>
<path d="M630.5 249H688.34L721 275" stroke="black" stroke-width="3"/>
<path d="M718.5 966.5L757 888.5L771.5 954.5L955.5 763.5L969 830.5L1038.5 623.5L1067.5 711.5L1068.5 487L1120 559.5L1066.5 365.5L1122.5 449.5L1086 287.5L942.5 162.5L994.5 164.5L827.5 83.5L903.5 77.5L838.5 60.5C838.5 60.5 765.363 91.5833 718.5 111.5" stroke="black" stroke-width="4"/>
<path d="M719 841.318L763.35 788.066L773.651 841.318L904.364 687.211L913.954 741.269L963.327 574.253L983.928 645.255L984.639 464.119L1021.22 522.615L983.218 366.087L1023 433.862L997.071 303.153L895.129 202.298L932.069 203.912L813.433 138.557L867.423 133.716L821.248 120C821.248 120 752.291 145.43 719 161.5" stroke="black" stroke-width="4"/>
<path d="M897.5 353.5L853 316.5L764.5 359.5L813 343.5L845.5 365.5L849.25 341L853 316.5L864 345L897.5 353.5Z" fill="black"/>
<path d="M900 260L957 396.5L876.5 484.5V543.5L841.5 601.5M841.5 601.5L840 667.5L791.5 718.5H761.5L751.5 766.5L739.5 723.5L718.5 787.5M841.5 601.5L807 626L719.5 601.5V543.5L791.5 482L778.263 450.5M737.5 353.5L778.263 450.5M778.263 450.5L719.5 459M853 316.5C870.378 330.949 897.5 353.5 897.5 353.5L864 345L853 316.5ZM853 316.5C818.439 333.293 764.5 359.5 764.5 359.5L813 343.5L845.5 365.5C846.964 355.932 847.786 350.568 849.25 341C850.714 331.432 851.536 326.068 853 316.5Z" stroke="black" stroke-width="3"/>
<path d="M719.5 601.5L807 626H719.5V601.5Z" fill="black"/>
<path d="M897 353.5L862.809 345L845.713 367.5M807 626L719.5 601.5V626H807Z" stroke="black" stroke-width="3"/>
<path d="M863 345L853.5 316.5L812.5 343L846.5 366.5L863 345Z" fill="black"/>
<path d="M863 345L853.5 316.5L812.5 343M863 345L837.75 344M863 345L846.5 366.5M812.5 343L837.75 344M812.5 343L846.5 366.5M837.75 344L846.5 366.5" stroke="black" stroke-width="3"/>
<path d="M900 261L819.05 195H720" stroke="black" stroke-width="3"/>
<path d="M892 306.5L834 273.5L777.5 306.5" stroke="black" stroke-width="3"/>
<path d="M809.5 249H751.66L719 275" stroke="black" stroke-width="3"/>
</svg>
